# xmcd CD database file
#
# Track frame offsets:
#	150
#	13597
#	24118
#	36941
#	47346
#	60011
#	70078
#	79879
#	91714
#	101989
#
# Disc length: 1496 seconds
#
# Revision: 0
# Processed by: cddbd v1.5.2PL0 Copyright (c) Steve Scherf et al.
# Submitted via: CDex 1.70beta2
#
DISCID=6805d60a
DTITLE=Houston, David - USA - Elusive Dreamer
DYEAR=2006
DGENRE=Country
TTITLE0=Almkost Persuaded
TTITLE1=Baby Baby(I Know You're A Lady)
TTITLE2=My Elusive Dreams
TTITLE3=Have A Little Fairh
TTITLE4=Mountain of Love
TTITLE5=With One Exception
TTITLE6=You Mean the World To Me
TTITLE7=Already It's Heaven
TTITLE8=Livin' In A House Full of Love
TTITLE9=A Woman Always Know
EXTD=YEAR: 2006
EXTT0=
EXTT1=
EXTT2=
EXTT3=
EXTT4=
EXTT5=
EXTT6=
EXTT7=
EXTT8=
EXTT9=
PLAYORDER=
